<svg width="16" xmlns="http://www.w3.org/2000/svg" height="16" viewBox="0 0 16 16">
  <defs id="defs3051">
    <style type="text/css" id="current-color-scheme">
      .ColorScheme-Text {
        color:#4d4d4d;
      }
      </style>
  </defs>
  <path style="fill:currentColor;fill-opacity:1;stroke:none" d="M 8.8 4 L 6.75 2.05 2 2.05 2 14 14 14 14.05 4 8.8 4 M 6.35 3.05 L 7.2 3.85 4.55 6.5 3 6.5 3 3.05 6.35 3.05 M 13 7.5 L 13 13 3 13 3 7.5 13 7.5 M 10.85 10.75 L 10.85 9.75 8.8 9.75 8.8 7.7 7.8 7.7 7.8 9.75 5.75 9.75 5.75 10.75 7.8 10.75 7.8 12.8 8.8 12.8 8.8 10.75 10.85 10.75 Z" class="ColorScheme-Text"/>
</svg>
